<mxfile host="app.diagrams.net" modified="2024-02-07T18:16:06.595Z" agent="Mozilla/5.0 (X11; Linux x86_64) AppleWebKit/537.36 (KHTML, like Gecko) Chrome/121.0.0.0 Safari/537.36" etag="iAhK-72lB213COs3a-bo" version="23.1.2" type="device">
  <diagram id="z2fywuhmsZZxHbe4xA-M" name="Page-1">
    <mxGraphModel dx="1322" dy="680" grid="1" gridSize="10" guides="1" tooltips="1" connect="1" arrows="1" fold="1" page="1" pageScale="1" pageWidth="827" pageHeight="1169" math="0" shadow="0">
      <root>
        <mxCell id="0" />
        <mxCell id="1" parent="0" />
        <mxCell id="bJpEafwaLPq2wsB356PL-23" value="" style="rounded=1;whiteSpace=wrap;html=1;" parent="1" vertex="1">
          <mxGeometry x="170" y="24" width="502" height="100" as="geometry" />
        </mxCell>
        <mxCell id="TMdRoOH4GbIq7_JRytAd-5" value="&lt;h1 style=&quot;line-height: 50%;&quot;&gt;&lt;span style=&quot;font-size: 12px; font-weight: 400;&quot;&gt;Create/Modify/Delete a K8s resource&lt;/span&gt;&lt;/h1&gt;" style="text;html=1;strokeColor=none;fillColor=none;spacing=5;spacingTop=-20;whiteSpace=wrap;overflow=hidden;rounded=0;" parent="1" vertex="1">
          <mxGeometry x="37" y="41" width="145" height="45" as="geometry" />
        </mxCell>
        <mxCell id="bJpEafwaLPq2wsB356PL-3" value="&lt;font style=&quot;font-size: 12px;&quot;&gt;API HTTP handler&lt;/font&gt;" style="rounded=0;whiteSpace=wrap;html=1;" parent="1" vertex="1">
          <mxGeometry x="183" y="54" width="80" height="60" as="geometry" />
        </mxCell>
        <mxCell id="bJpEafwaLPq2wsB356PL-4" value="" style="endArrow=classic;html=1;rounded=0;entryX=0;entryY=0.5;entryDx=0;entryDy=0;" parent="1" target="bJpEafwaLPq2wsB356PL-3" edge="1">
          <mxGeometry width="50" height="50" relative="1" as="geometry">
            <mxPoint x="42" y="84" as="sourcePoint" />
            <mxPoint x="272" y="84" as="targetPoint" />
          </mxGeometry>
        </mxCell>
        <mxCell id="bJpEafwaLPq2wsB356PL-6" value="&lt;font style=&quot;font-size: 12px;&quot;&gt;Authentication&lt;br&gt;Authorization&lt;/font&gt;" style="rounded=0;whiteSpace=wrap;html=1;" parent="1" vertex="1">
          <mxGeometry x="283" y="54" width="80" height="60" as="geometry" />
        </mxCell>
        <mxCell id="bJpEafwaLPq2wsB356PL-7" value="" style="endArrow=classic;html=1;rounded=0;entryX=0;entryY=0.5;entryDx=0;entryDy=0;" parent="1" target="bJpEafwaLPq2wsB356PL-6" edge="1">
          <mxGeometry width="50" height="50" relative="1" as="geometry">
            <mxPoint x="263" y="84" as="sourcePoint" />
            <mxPoint x="433" y="84" as="targetPoint" />
          </mxGeometry>
        </mxCell>
        <mxCell id="bJpEafwaLPq2wsB356PL-10" value="" style="endArrow=classic;html=1;rounded=0;entryX=0;entryY=0.5;entryDx=0;entryDy=0;" parent="1" edge="1">
          <mxGeometry width="50" height="50" relative="1" as="geometry">
            <mxPoint x="363" y="84" as="sourcePoint" />
            <mxPoint x="383" y="84" as="targetPoint" />
          </mxGeometry>
        </mxCell>
        <mxCell id="bJpEafwaLPq2wsB356PL-26" style="edgeStyle=orthogonalEdgeStyle;rounded=0;orthogonalLoop=1;jettySize=auto;html=1;exitX=0.25;exitY=1;exitDx=0;exitDy=0;" parent="1" source="bJpEafwaLPq2wsB356PL-11" edge="1">
          <mxGeometry relative="1" as="geometry">
            <mxPoint x="403.20000000000005" y="174" as="targetPoint" />
          </mxGeometry>
        </mxCell>
        <mxCell id="bJpEafwaLPq2wsB356PL-11" value="Mutating admission" style="rounded=0;whiteSpace=wrap;html=1;" parent="1" vertex="1">
          <mxGeometry x="383" y="54" width="80" height="60" as="geometry" />
        </mxCell>
        <mxCell id="bJpEafwaLPq2wsB356PL-15" value="Object schema validation" style="rounded=0;whiteSpace=wrap;html=1;" parent="1" vertex="1">
          <mxGeometry x="483" y="54" width="80" height="60" as="geometry" />
        </mxCell>
        <mxCell id="bJpEafwaLPq2wsB356PL-16" value="" style="endArrow=classic;html=1;rounded=0;entryX=0;entryY=0.5;entryDx=0;entryDy=0;" parent="1" target="bJpEafwaLPq2wsB356PL-15" edge="1">
          <mxGeometry width="50" height="50" relative="1" as="geometry">
            <mxPoint x="463" y="84" as="sourcePoint" />
            <mxPoint x="633" y="84" as="targetPoint" />
          </mxGeometry>
        </mxCell>
        <mxCell id="bJpEafwaLPq2wsB356PL-27" style="edgeStyle=orthogonalEdgeStyle;rounded=0;orthogonalLoop=1;jettySize=auto;html=1;exitX=0.25;exitY=1;exitDx=0;exitDy=0;" parent="1" source="bJpEafwaLPq2wsB356PL-17" edge="1">
          <mxGeometry relative="1" as="geometry">
            <mxPoint x="603.2" y="174" as="targetPoint" />
          </mxGeometry>
        </mxCell>
        <mxCell id="bJpEafwaLPq2wsB356PL-17" value="Validating admission" style="rounded=0;whiteSpace=wrap;html=1;" parent="1" vertex="1">
          <mxGeometry x="583" y="54" width="80" height="60" as="geometry" />
        </mxCell>
        <mxCell id="bJpEafwaLPq2wsB356PL-18" value="" style="endArrow=classic;html=1;rounded=0;entryX=0;entryY=0.5;entryDx=0;entryDy=0;" parent="1" target="bJpEafwaLPq2wsB356PL-17" edge="1">
          <mxGeometry width="50" height="50" relative="1" as="geometry">
            <mxPoint x="563" y="84" as="sourcePoint" />
            <mxPoint x="733" y="84" as="targetPoint" />
          </mxGeometry>
        </mxCell>
        <mxCell id="bJpEafwaLPq2wsB356PL-19" value="etcd" style="rounded=0;whiteSpace=wrap;html=1;" parent="1" vertex="1">
          <mxGeometry x="700" y="54" width="80" height="60" as="geometry" />
        </mxCell>
        <mxCell id="bJpEafwaLPq2wsB356PL-20" value="" style="endArrow=classic;html=1;rounded=0;entryX=0;entryY=0.5;entryDx=0;entryDy=0;" parent="1" target="bJpEafwaLPq2wsB356PL-19" edge="1">
          <mxGeometry width="50" height="50" relative="1" as="geometry">
            <mxPoint x="663" y="84" as="sourcePoint" />
            <mxPoint x="833" y="84" as="targetPoint" />
          </mxGeometry>
        </mxCell>
        <mxCell id="bJpEafwaLPq2wsB356PL-24" value="Kubernetes API" style="text;html=1;strokeColor=none;fillColor=none;align=center;verticalAlign=middle;whiteSpace=wrap;rounded=0;" parent="1" vertex="1">
          <mxGeometry x="170" y="24" width="502" height="30" as="geometry" />
        </mxCell>
        <mxCell id="bJpEafwaLPq2wsB356PL-30" value="Gatekeeper" style="rounded=0;whiteSpace=wrap;html=1;" parent="1" vertex="1">
          <mxGeometry x="383" y="174" width="281" height="60" as="geometry" />
        </mxCell>
        <mxCell id="bJpEafwaLPq2wsB356PL-31" value="" style="endArrow=classic;html=1;rounded=0;entryX=0.75;entryY=1;entryDx=0;entryDy=0;exitX=0.214;exitY=0.007;exitDx=0;exitDy=0;exitPerimeter=0;" parent="1" source="bJpEafwaLPq2wsB356PL-30" target="bJpEafwaLPq2wsB356PL-11" edge="1">
          <mxGeometry width="50" height="50" relative="1" as="geometry">
            <mxPoint x="404" y="204" as="sourcePoint" />
            <mxPoint x="454" y="154" as="targetPoint" />
          </mxGeometry>
        </mxCell>
        <mxCell id="bJpEafwaLPq2wsB356PL-33" value="" style="endArrow=classic;html=1;rounded=0;entryX=0.75;entryY=1;entryDx=0;entryDy=0;exitX=0.926;exitY=0.007;exitDx=0;exitDy=0;exitPerimeter=0;" parent="1" source="bJpEafwaLPq2wsB356PL-30" target="bJpEafwaLPq2wsB356PL-17" edge="1">
          <mxGeometry width="50" height="50" relative="1" as="geometry">
            <mxPoint x="534" y="204" as="sourcePoint" />
            <mxPoint x="584" y="154" as="targetPoint" />
          </mxGeometry>
        </mxCell>
        <mxCell id="bJpEafwaLPq2wsB356PL-35" value="&lt;h1 style=&quot;line-height: 50%;&quot;&gt;&lt;span style=&quot;font-size: 12px; font-weight: 400;&quot;&gt;Admission review&lt;/span&gt;&lt;/h1&gt;" style="text;html=1;strokeColor=none;fillColor=none;spacing=5;spacingTop=-20;whiteSpace=wrap;overflow=hidden;rounded=0;" parent="1" vertex="1">
          <mxGeometry x="538" y="124" width="71" height="45" as="geometry" />
        </mxCell>
        <mxCell id="bJpEafwaLPq2wsB356PL-37" value="&lt;h1 style=&quot;line-height: 50%;&quot;&gt;&lt;span style=&quot;font-size: 12px; font-weight: 400;&quot;&gt;Allowed / Denied&lt;/span&gt;&lt;/h1&gt;" style="text;html=1;strokeColor=none;fillColor=none;spacing=5;spacingTop=-20;whiteSpace=wrap;overflow=hidden;rounded=0;" parent="1" vertex="1">
          <mxGeometry x="643" y="134" width="100" height="30" as="geometry" />
        </mxCell>
        <mxCell id="bJpEafwaLPq2wsB356PL-38" value="&lt;h1 style=&quot;line-height: 50%;&quot;&gt;&lt;span style=&quot;font-size: 12px; font-weight: 400;&quot;&gt;Admission review&lt;/span&gt;&lt;/h1&gt;" style="text;html=1;strokeColor=none;fillColor=none;spacing=5;spacingTop=-20;whiteSpace=wrap;overflow=hidden;rounded=0;" parent="1" vertex="1">
          <mxGeometry x="338" y="124" width="71" height="45" as="geometry" />
        </mxCell>
        <mxCell id="bJpEafwaLPq2wsB356PL-39" value="&lt;h1 style=&quot;line-height: 50%;&quot;&gt;&lt;span style=&quot;font-size: 12px; font-weight: 400;&quot;&gt;Mutated resource&lt;/span&gt;&lt;/h1&gt;" style="text;html=1;strokeColor=none;fillColor=none;spacing=5;spacingTop=-20;whiteSpace=wrap;overflow=hidden;rounded=0;" parent="1" vertex="1">
          <mxGeometry x="443" y="124" width="71" height="45" as="geometry" />
        </mxCell>
      </root>
    </mxGraphModel>
  </diagram>
</mxfile>
